# xmcd CD database file
#
# Track frame offsets:
#	150
#	16957
#	32761
#	46897
#	62340
#	83516
#	102994
#	120136
#	134000
#	148285
#
# Disc length: 2166 seconds
#
# Revision: 0
# Processed by: cddbd v1.5.2PL0 Copyright (c) Steve Scherf et al.
# Submitted via: CDex 1.40Release
#
DISCID=7c08740a
DTITLE=Tony Justice - Rockin' Rusty
DYEAR=2006
DGENRE=Country
TTITLE0=01. Rockin' Rusty
TTITLE1=02.Racin' Time Again
TTITLE2=03. Concrete Boogie
TTITLE3=04. NASCAR Chicks
TTITLE4=05. Wild Days
TTITLE5=06. Runnin' Shine
TTITLE6=07. Just Another Day
TTITLE7=08. Dirty Work
TTITLE8=09. Field and Stream
TTITLE9=10. Tough It Out
EXTD=YEAR: 2006 ID3G: 2
EXTT0=
EXTT1=
EXTT2=
EXTT3=
EXTT4=
EXTT5=
EXTT6=
EXTT7=
EXTT8=
EXTT9=
PLAYORDER=
